<svg width="157" height="81" viewBox="0 0 157 81" fill="none" xmlns="http://www.w3.org/2000/svg">
<path fill-rule="evenodd" clip-rule="evenodd" d="M22.4079 29.428C20.201 30.3982 16.9757 31.3684 14.0898 31.3684C11.7132 31.3684 9.84588 30.7216 8.82734 29.2663C8.31807 28.4579 7.97856 27.326 7.97856 26.5176C19.1825 26.841 25.9728 24.2539 25.9728 17.6245C25.9728 12.7737 21.8986 9.70154 16.2966 9.70154C6.11124 9.70154 0 18.1096 0 26.1942C0 33.147 4.07416 37.351 12.0527 37.351C14.5991 37.351 18.3337 36.8659 21.2196 35.7341L22.4079 29.428ZM18.164 17.6245C18.164 20.0499 14.9386 20.8583 8.65759 20.8583C9.16686 18.4329 11.3737 15.3608 15.1083 15.3608C16.9757 15.3608 18.164 16.3309 18.164 17.6245Z" fill="white"/>
<path fill-rule="evenodd" clip-rule="evenodd" d="M143.275 15.6842C146.5 15.6842 147.688 18.2712 147.688 20.6966C147.688 25.224 145.142 31.53 140.728 31.53C137.842 31.53 136.315 29.428 136.315 26.3559C136.315 22.1519 138.691 15.6842 143.275 15.6842ZM144.463 9.70154C134.617 9.70154 127.827 17.3011 127.827 26.5176C127.827 33.147 132.58 37.5127 139.54 37.5127C149.216 37.5127 156.176 30.3982 156.176 20.6966C156.176 14.5523 151.932 9.70154 144.463 9.70154Z" fill="white"/>
<path fill-rule="evenodd" clip-rule="evenodd" d="M124.941 30.0748C123.583 30.5599 121.885 31.2067 119.339 31.2067C116.283 31.2067 113.907 29.428 113.907 25.7091C113.907 20.6966 117.472 16.0076 123.413 16.0076C125.111 16.0076 125.959 16.1692 126.978 16.4926L128.166 10.3483C126.978 9.86323 125.79 9.70154 123.413 9.70154C112.888 9.70154 105.249 16.9777 105.249 26.5176C105.249 33.3087 110.172 37.351 116.962 37.351C119.678 37.351 121.885 37.0276 123.583 36.5425L124.941 30.0748Z" fill="white"/>
<path fill-rule="evenodd" clip-rule="evenodd" d="M81.3134 10.3483L86.9154 34.2788C87.0852 34.9256 87.0852 35.249 86.7457 35.5724C85.7271 37.351 84.1993 38.9679 82.332 40.2615C80.6344 41.3933 78.9368 42.0401 77.5788 42.3635L79.4461 48.9929C81.3134 48.6695 85.2178 47.3759 88.4432 44.4655C92.1779 41.0699 95.4032 36.3808 99.1379 29.2664L109.154 10.1866H100.156L95.0637 21.8285C93.8754 24.739 93.1964 26.5176 92.6871 27.9728H92.5174C92.3476 26.3559 92.0081 24.4156 91.6686 21.6668L89.971 10.1866L81.3134 10.3483Z" fill="white"/>
<path fill-rule="evenodd" clip-rule="evenodd" d="M39.3836 6.4677C40.0626 6.30601 41.0811 6.14432 42.6089 6.14432C45.8343 6.14432 48.3807 7.27617 48.3807 10.8334C48.3807 14.3906 45.1553 17.4628 40.2323 17.4628C38.8743 17.4628 37.8558 17.3011 37.1767 17.1394L39.3836 6.4677ZM25.2938 36.8659H33.2723L35.8187 23.7688C36.6675 23.9305 37.8558 23.9305 39.2138 23.9305C43.7972 23.9305 48.2109 22.9604 51.4363 20.535C54.4919 18.2713 56.6987 14.8757 56.6987 10.1866C56.6987 6.6294 55.0012 4.20401 52.4548 2.42539C49.9085 0.485078 45.8343 0 42.4392 0C37.1767 0 34.8001 0.323385 29.8772 1.77862L28.8587 6.79109L31.2352 6.4677L25.2938 36.8659Z" fill="white"/>
<path fill-rule="evenodd" clip-rule="evenodd" d="M69.77 26.6793C69.6002 27.1643 69.4305 27.6494 69.2607 28.1345C68.2422 29.7514 66.2051 31.2067 64.168 31.2067C62.3007 31.2067 60.9427 30.2365 61.4519 28.1345C62.131 24.9006 65.8656 23.9305 70.449 23.9305L69.77 26.6793ZM76.5603 36.3808C76.5603 34.9256 76.8998 32.5002 77.5788 29.9131L79.4461 20.6966C80.8042 14.5523 78.9369 9.21646 69.6002 9.21646C65.6958 9.21646 62.4705 10.0249 60.0939 10.8334L58.7358 16.816C60.7729 15.6842 63.9983 14.8757 66.8841 14.8757C71.1281 14.8757 71.4676 16.816 71.2978 18.2712V18.5946C61.4519 18.5946 54.3221 21.8285 52.7943 28.7813C51.9456 32.9853 54.4919 36.8659 60.0939 36.8659C63.3193 36.8659 66.3749 35.734 68.7515 33.632H68.9212V36.2191L76.5603 36.3808Z" fill="white"/>
<path d="M2.20684 54.0053L1.86733 56.269H4.41368L4.24392 56.9158H1.86733L1.52782 59.1795H4.58344L4.41368 59.8263H0.509277L1.35806 53.1969H5.43222L5.26246 53.8436H2.20684V54.0053Z" fill="white"/>
<path d="M6.79029 56.4307C7.1298 56.1073 7.29956 55.6222 7.63907 55.4606C7.97858 55.2989 8.3181 55.1372 8.65761 55.1372C8.82737 55.1372 8.99712 55.1372 9.16688 55.2989C9.33664 55.4606 9.50639 55.4606 9.50639 55.6223C9.67615 55.7839 9.67615 55.9456 9.67615 56.1073C9.67615 56.269 9.67615 56.5924 9.67615 56.9158L9.33664 59.988H8.65761L8.99712 56.9158C8.99712 56.5924 8.99712 56.269 8.99712 56.1073C8.99712 55.9456 8.65761 55.7839 8.48785 55.7839C8.3181 55.7839 8.14834 55.7839 7.97858 55.9456C7.80883 56.1073 7.63907 56.1073 7.46931 56.269C7.29956 56.4307 7.1298 56.5924 7.1298 56.7541C7.1298 56.9158 6.79029 57.2392 6.79029 57.5626L6.45077 59.8263H5.60199L6.11126 54.9755H6.45077C6.62053 54.9755 6.79029 55.1372 6.79029 55.2989V56.4307Z" fill="white"/>
<path d="M16.1269 58.6944C15.9571 58.8561 15.7874 59.0178 15.7874 59.1795C15.6176 59.3412 15.4478 59.5029 15.4478 59.5029C15.1083 59.8262 15.1083 59.8262 14.9386 59.9879C14.7688 59.9879 14.5991 60.1496 14.4293 60.1496C14.2595 60.1496 14.0898 60.1496 13.92 59.9879C13.7503 59.8262 13.5805 59.6646 13.4108 59.6646C13.241 59.5029 13.241 59.3412 13.0712 59.1795C13.0712 59.0178 12.9015 58.6944 12.9015 58.5327C12.9015 58.2093 12.9015 58.0476 13.0712 57.7242C13.0712 57.4009 13.241 57.2392 13.4108 56.9158C13.5805 56.5924 13.7503 56.4307 13.92 56.269C14.0898 56.1073 14.2595 55.9456 14.5991 55.7839C14.9386 55.6222 15.1083 55.4605 15.4478 55.4605C15.7874 55.2989 15.9571 55.2989 16.2966 55.2989C16.4664 55.2989 16.6361 55.2989 16.9756 55.2989C17.1454 55.2989 17.3152 55.4605 17.6547 55.4605L17.1454 59.9879H16.4664C16.2966 59.9879 16.2966 59.9879 16.1269 59.8262C15.9571 59.6646 16.1269 59.6646 16.1269 59.6646V58.6944ZM16.4664 55.7839H16.2966H16.1269C15.9571 55.7839 15.7874 55.7839 15.6176 55.9456C15.4478 56.1073 15.2781 56.1073 15.1083 56.269C14.9386 56.4307 14.7688 56.5924 14.7688 56.5924C14.5991 56.7541 14.4293 56.9158 14.4293 57.0775C14.4293 57.2392 14.2595 57.4009 14.2595 57.7242C14.2595 57.8859 14.2595 58.0476 14.2595 58.371C14.2595 59.1795 14.5991 59.5029 15.1083 59.5029C15.2781 59.5029 15.4478 59.5029 15.6176 59.3412C15.7874 59.1795 15.9571 59.0178 15.9571 59.0178C16.1269 58.8561 16.2966 58.6944 16.2966 58.371C16.4664 58.2093 16.4664 57.8859 16.6361 57.5626L16.4664 55.7839Z" fill="white"/>
<path d="M18.164 59.988L19.0128 53.0352H19.8616L19.0128 59.988H18.164Z" fill="white"/>
<path d="M21.7289 55.2989L21.0498 60.1496H20.201L20.8801 55.2989H21.7289ZM22.0684 53.8436C22.0684 54.0053 22.0684 54.0053 22.0684 54.167C22.0684 54.3287 21.8986 54.3287 21.8986 54.3287L21.7289 54.4904H21.5591C21.3893 54.4904 21.3893 54.4904 21.3893 54.4904L21.2196 54.3287L21.0498 54.167C21.0498 54.167 21.0498 54.0053 21.0498 53.8436C21.0498 53.6819 21.0498 53.6819 21.0498 53.5202C21.0498 53.3586 21.2196 53.3586 21.2196 53.3586L21.3893 53.1969H21.5591C21.7289 53.1969 21.7289 53.1969 21.7289 53.1969L21.8986 53.3586L22.0684 53.5202C22.0684 53.5202 22.0684 53.6819 22.0684 53.8436Z" fill="white"/>
<path d="M25.6333 58.6944C25.4635 58.8561 25.2937 59.0178 25.2937 59.1795C25.124 59.3412 24.9542 59.5029 24.9542 59.5029C24.7845 59.6646 24.6147 59.6646 24.445 59.8263C24.2752 59.8263 24.1054 59.988 23.9357 59.988C23.7659 59.988 23.5962 59.988 23.4264 59.8263C23.2567 59.6646 23.0869 59.6646 23.0869 59.5029C22.9172 59.3412 22.9171 59.1795 22.7474 59.0178C22.7474 58.8561 22.5776 58.5327 22.5776 58.371C22.5776 58.0476 22.5776 57.886 22.7474 57.5626C22.7474 57.2392 22.9172 57.0775 23.0869 56.7541C23.2567 56.4307 23.4264 56.269 23.5962 56.1073C23.7659 55.9456 23.9357 55.784 24.2752 55.6223C24.445 55.4606 24.7845 55.2989 25.124 55.2989C25.4635 55.1372 25.6333 55.1372 25.9728 55.1372C26.1425 55.1372 26.3123 55.1372 26.6518 55.1372C26.8216 55.1372 26.9913 55.2989 27.3308 55.2989L26.8216 59.8263H26.3123C26.1425 59.8263 26.1425 59.8263 25.9728 59.6646V59.5029L25.6333 58.6944ZM25.9728 55.784H25.803H25.6333C25.4635 55.784 25.2937 55.7839 25.124 55.9456C24.9542 56.1073 24.7845 56.1073 24.6147 56.269C24.445 56.4307 24.2752 56.5924 24.2752 56.5924C24.1054 56.7541 23.9357 56.9158 23.9357 57.0775C23.7659 57.2392 23.7659 57.4009 23.7659 57.7243C23.7659 57.886 23.5962 58.0476 23.5962 58.371C23.5962 59.1795 23.9357 59.5029 24.445 59.5029C24.6147 59.5029 24.7845 59.5029 24.9542 59.3412C25.124 59.1795 25.2937 59.0178 25.2937 59.0178C25.4635 58.8561 25.6333 58.6944 25.6333 58.371C25.803 58.0476 25.803 57.886 25.9728 57.5626V55.784Z" fill="white"/>
<path d="M28.8586 56.4307C29.1982 56.1073 29.3679 55.6222 29.7074 55.4606C30.0469 55.2989 30.3865 55.1372 30.726 55.1372C30.8957 55.1372 31.0655 55.1372 31.2352 55.2989C31.405 55.4606 31.5748 55.4606 31.5748 55.6223C31.7445 55.7839 31.7445 55.9456 31.7445 56.1073C31.7445 56.269 31.7445 56.5924 31.7445 56.9158L31.405 59.988H30.5562L30.8957 56.9158C30.8957 56.5924 30.8957 56.269 30.8957 56.1073C30.8957 55.9456 30.5562 55.7839 30.3865 55.7839C30.2167 55.7839 30.0469 55.7839 29.8772 55.9456C29.7074 56.1073 29.5377 56.1073 29.3679 56.269C29.1982 56.4307 29.0284 56.5924 29.0284 56.7541C29.0284 56.9158 28.8586 57.2392 28.8586 57.5626L28.5191 59.8263H27.6703L28.3494 54.9755H28.6889C28.8586 54.9755 29.0284 55.1372 29.0284 55.2989L28.8586 56.4307Z" fill="white"/>
<path d="M36.6675 55.2989V55.6222V55.7839C36.6675 55.7839 36.6675 55.9456 36.4977 55.9456L33.6118 59.3412H35.9884L35.8187 59.9879H32.2538V59.6646V59.5029C32.2538 59.5029 32.2538 59.3412 32.4235 59.3412L35.3094 55.9456H32.9328L33.1026 55.2989H36.6675Z" fill="white"/>
<path d="M39.8928 58.6944C39.723 58.8561 39.5533 59.0178 39.5533 59.1795C39.3835 59.3412 39.2138 59.5029 39.2138 59.5029C39.044 59.8262 38.8742 59.8262 38.7045 59.9879C38.5347 59.9879 38.365 60.1496 38.1952 60.1496C38.0255 60.1496 37.8557 60.1496 37.6859 59.9879C37.5162 59.9879 37.3464 59.8263 37.3464 59.6646C37.1767 59.5029 37.1767 59.3412 37.0069 59.1795C37.0069 59.0178 36.8372 58.6944 36.8372 58.5327C36.8372 58.2093 36.8372 58.0476 37.0069 57.7242C37.0069 57.4009 37.1767 57.2392 37.3464 56.9158C37.5162 56.5924 37.6859 56.4307 37.8557 56.269C38.0255 56.1073 38.1952 55.9456 38.5347 55.7839C38.7045 55.6222 39.044 55.4605 39.2138 55.4605C39.5533 55.2989 39.723 55.2989 40.0625 55.2989C40.2323 55.2989 40.402 55.2989 40.7416 55.2989C40.9113 55.2989 41.0811 55.4605 41.4206 55.4605L40.9113 59.9879H40.402C40.2323 59.9879 40.2323 59.9879 40.2323 59.8262V59.6646L39.8928 58.6944ZM40.2323 55.7839H40.0625H39.8928C39.723 55.7839 39.5533 55.7839 39.3835 55.9456C39.2138 56.1073 39.044 56.1073 38.8742 56.269C38.7045 56.4307 38.5347 56.5924 38.5347 56.5924C38.365 56.7541 38.1952 56.9158 38.1952 57.0775C38.0255 57.2392 38.0255 57.4009 38.0255 57.7242C38.0255 57.8859 37.8557 58.0476 37.8557 58.371C37.8557 59.1795 38.1952 59.5029 38.5347 59.5029C38.7045 59.5029 38.8742 59.5029 39.044 59.3412C39.2138 59.1795 39.3835 59.0178 39.3835 59.0178C39.5533 58.8561 39.723 58.6944 39.723 58.371C39.8928 58.0476 39.8928 57.8859 40.0625 57.5626L40.2323 55.7839Z" fill="white"/>
<path d="M47.3621 59.6646C47.1923 59.8263 47.0226 59.8263 46.8528 59.988C46.6831 60.1496 46.5133 60.1497 46.3436 60.1497C46.1738 60.1497 46.004 60.1497 45.8343 60.1497C45.4948 60.1497 45.325 60.1496 44.9855 59.988C44.8157 59.8263 44.646 59.8263 44.4762 59.6646C44.3065 59.5029 44.1367 59.3412 44.1367 59.0178C44.1367 58.6944 44.1367 58.371 44.1367 58.2093C44.1367 57.886 44.1367 57.4009 44.3065 57.0775C44.4762 56.7541 44.646 56.4307 44.8157 56.1073C44.9855 55.784 45.325 55.6223 45.6645 55.4606C46.004 55.2989 46.3436 55.1372 46.6831 55.1372C47.0226 55.1372 47.3621 55.1372 47.5319 55.2989C47.7016 55.4606 47.8714 55.6223 48.0411 55.7839L47.7016 56.1073C47.7016 56.1073 47.7016 56.1073 47.5319 56.1073C47.5319 56.1073 47.5319 56.1073 47.3621 56.1073H47.1923L47.0226 55.9456C47.0226 55.9456 46.8528 55.7839 46.6831 55.7839C46.5133 55.7839 46.3436 55.7839 46.3436 55.7839C46.1738 55.7839 46.004 55.7839 45.6645 55.9456C45.4948 56.1073 45.325 56.269 45.1553 56.4307C44.9855 56.5924 44.8157 56.9158 44.8157 57.0775C44.646 57.4009 44.646 57.7243 44.646 58.0476C44.646 58.2093 44.646 58.371 44.646 58.5327C44.646 58.6944 44.8157 58.8561 44.8157 58.8561C44.8157 58.8561 44.9855 59.0178 45.1553 59.1795C45.325 59.1795 45.4948 59.3412 45.6645 59.3412C45.8343 59.3412 46.004 59.3412 46.1738 59.1795C46.3436 59.1795 46.5133 59.0178 46.5133 59.0178C46.6831 59.0178 46.6831 58.8561 46.8528 58.8561C47.0226 58.8561 47.0226 58.6944 47.0226 58.6944C47.0226 58.6944 47.1923 58.6944 47.1923 58.8561L47.3621 59.1795C47.7016 59.3412 47.5319 59.5029 47.3621 59.6646Z" fill="white"/>
<path d="M50.4177 59.988C50.0782 59.988 49.9084 59.988 49.7387 59.8263C49.5689 59.6646 49.3992 59.6646 49.2294 59.5029C49.0597 59.3412 48.8899 59.1795 48.8899 58.8561C48.7202 58.5327 48.7202 58.371 48.7202 58.0476C48.7202 57.7243 48.7202 57.2392 48.8899 56.9158C49.0597 56.5924 49.2294 56.269 49.3992 55.9456C49.5689 55.6222 49.9084 55.4606 50.248 55.2989C50.5875 55.1372 50.927 54.9755 51.2665 54.9755C51.606 54.9755 51.7758 54.9755 51.9455 55.1372C52.1153 55.2989 52.285 55.2989 52.4548 55.4606C52.6246 55.6222 52.7943 55.7839 52.7943 56.1073C52.9641 56.4307 52.9641 56.5924 52.9641 56.9158C52.9641 57.2392 52.9641 57.7243 52.7943 58.0476C52.6246 58.371 52.4548 58.6944 52.285 59.0178C52.1153 59.3412 51.7758 59.5029 51.4363 59.6646C51.0967 59.988 50.7572 59.988 50.4177 59.988ZM50.5875 59.3412C50.927 59.3412 51.0967 59.3412 51.2665 59.1795C51.4363 59.0178 51.606 58.8561 51.7758 58.6944C51.9455 58.5327 52.1153 58.2093 52.1153 58.0476C52.1153 57.7243 52.285 57.5626 52.285 57.2392C52.285 56.7541 52.1153 56.4307 51.9455 56.269C51.7758 56.1073 51.606 55.9456 51.0967 55.9456C50.7572 55.9456 50.5875 55.9456 50.4177 56.1073C50.248 56.269 50.0782 56.4307 49.9084 56.5924C49.7387 56.7541 49.5689 57.0775 49.5689 57.2392C49.5689 57.5626 49.3992 57.7243 49.3992 58.0476C49.3992 58.5327 49.5689 58.8561 49.7387 59.0178C49.9084 59.3412 50.0782 59.3412 50.5875 59.3412Z" fill="white"/>
<path d="M55.0012 56.4307C55.3407 56.1073 55.5104 55.6222 55.8499 55.4606C56.1895 55.2989 56.529 55.1372 56.8685 55.1372C57.0382 55.1372 57.208 55.1372 57.3777 55.2989C57.5475 55.4606 57.7173 55.4606 57.7173 55.6223C57.887 55.7839 57.887 55.9456 57.887 56.1073C57.887 56.269 57.887 56.5924 57.887 56.9158L57.7173 59.988H56.8685L57.208 56.9158C57.208 56.5924 57.208 56.269 57.208 56.1073C57.208 55.9456 56.8685 55.7839 56.6987 55.7839C56.529 55.7839 56.3592 55.7839 56.1895 55.9456C56.0197 56.1073 55.8499 56.1073 55.6802 56.269C55.5104 56.4307 55.3407 56.5924 55.3407 56.7541C55.1709 56.9158 55.0012 57.2392 55.0012 57.4009L54.6616 59.8263H53.8129L54.4919 54.9755H54.8314C55.0012 54.9755 55.1709 55.1372 55.1709 55.2989L55.0012 56.4307Z" fill="white"/>
<path d="M30.2166 78.5826C32.5932 79.0677 38.7045 78.906 38.8742 75.1871C38.8742 73.7318 36.8372 72.2766 34.9698 71.7915C32.5932 71.3064 31.0654 71.3064 28.6888 71.7915C27.161 72.2766 26.8215 70.983 28.1796 70.498C30.7259 69.5278 40.7416 69.3661 41.2508 75.1871C40.9113 80.8463 32.084 80.3612 30.2166 80.0378C29.3679 79.8761 28.8586 79.5528 28.8586 78.5826V73.8935C28.8586 72.7617 30.5562 72.7617 30.5562 73.8935L30.2166 78.5826Z" fill="white"/>
<path d="M49.0596 71.9532C47.1923 71.9532 43.7972 77.6124 42.7786 79.7145C42.2694 80.8463 40.402 80.0378 40.9113 78.906C41.9298 76.6423 45.8342 70.1746 48.8899 70.1746C51.9455 70.1746 55.8499 76.6423 56.8684 78.906C57.3777 80.0378 55.6801 81.008 55.0011 79.7145C54.1523 77.6124 50.9269 71.9532 49.0596 71.9532Z" fill="white"/>
<path d="M62.6401 78.2592C64.5075 78.2592 67.9026 72.6 68.9211 70.498C69.4304 69.3661 71.2977 70.1746 70.7885 71.3064C69.7699 73.5701 65.8655 80.0378 62.8099 80.0378C59.7543 80.0378 55.8499 73.5701 54.8313 71.3064C54.3221 70.0129 56.0196 69.2044 56.6987 70.498C57.3777 72.6 60.6031 78.2592 62.6401 78.2592Z" fill="white"/>
<path d="M74.0139 70.9831V79.2294C74.0139 80.5229 72.1466 80.3612 72.1466 79.2294V70.9831C71.9768 69.6895 74.0139 69.6895 74.0139 70.9831Z" fill="white"/>
<path d="M83.3505 78.2592C85.2178 78.2592 88.6129 72.6 89.6315 70.498C90.1407 69.3661 92.0081 70.1746 91.4988 71.3064C90.4803 73.5701 86.5759 80.0378 83.5202 80.0378C80.4646 80.0378 76.5602 73.5701 75.5417 71.3064C75.0324 70.0129 76.73 69.2044 77.409 70.498C78.088 72.6 81.3134 78.2592 83.3505 78.2592Z" fill="white"/>
<path d="M98.289 75.9955C98.7983 77.1274 100.496 78.0975 102.024 78.4209C104.4 78.906 105.928 78.906 108.305 78.4209C109.832 77.9358 110.172 79.3911 108.814 79.7145C106.098 80.5229 96.2519 80.8463 95.7427 75.1871C96.0822 69.6895 103.891 69.8512 106.947 70.1746C108.474 70.3363 108.135 71.7915 106.607 71.4681C104.57 71.1448 99.1378 70.9831 98.1193 74.3786H103.721C104.57 74.3786 104.57 75.9955 103.721 75.9955H98.289Z" fill="white"/>
<path d="M129.524 78.5826C131.901 79.0677 138.012 78.906 138.182 75.1871C138.182 73.7318 136.145 72.2766 134.277 71.7915C131.901 71.3064 130.373 71.3064 127.996 71.7915C126.469 72.2766 126.129 70.983 127.487 70.498C130.034 69.5278 140.049 69.3661 140.558 75.1871C140.219 80.8463 131.392 80.3612 129.524 80.0378C128.675 79.8761 128.166 79.5528 128.166 78.5826V73.8935C128.166 72.7617 129.864 72.7617 129.864 73.8935L129.524 78.5826Z" fill="white"/>
<path d="M148.367 71.9532C146.5 71.9532 143.105 77.6124 142.086 79.7145C141.577 80.8463 139.71 80.0378 140.219 78.906C141.238 76.6423 145.142 70.1746 148.198 70.1746C151.253 70.1746 155.158 76.6423 156.176 78.906C156.685 80.0378 154.988 81.008 154.309 79.7145C153.46 77.6124 150.235 71.9532 148.367 71.9532Z" fill="white"/>
<path d="M94.5545 70.9831V79.2294C94.5545 80.5229 92.6871 80.3612 92.6871 79.2294V70.9831C92.6871 69.6895 94.5545 69.6895 94.5545 70.9831Z" fill="white"/>
<path d="M118.151 76.804C116.962 74.702 115.604 71.9532 114.755 71.7915C112.549 71.7915 113.567 75.9955 113.567 79.3911C113.567 80.5229 111.7 80.5229 111.7 79.2294C111.7 75.0254 110.681 70.0129 114.925 70.0129C116.114 70.0129 117.302 71.7915 118.32 73.4084C119.509 75.5104 121.036 78.2592 121.885 78.4209C124.092 78.4209 123.074 74.2169 123.074 70.9831C123.074 69.8512 124.941 69.8512 124.941 71.1447C124.941 75.3488 125.959 80.3612 121.715 80.3612C120.357 80.1995 119.169 78.4209 118.151 76.804Z" fill="white"/>
<path fill-rule="evenodd" clip-rule="evenodd" d="M3.39512 72.4383C3.39512 72.7617 3.39512 74.0552 2.20683 75.8338C0.848774 77.7741 2.88585 81.008 7.12977 80.1995C7.97855 80.5229 8.99709 80.5229 9.67612 80.5229C10.3551 80.5229 11.3737 80.5229 12.2225 80.1995C16.2966 81.008 18.3337 77.7741 17.1454 75.8338C15.9571 74.0552 15.9571 72.7617 15.9571 72.4383H3.39512Z" fill="#E1251B"/>
<path fill-rule="evenodd" clip-rule="evenodd" d="M9.50635 80.5229C5.4322 80.3612 4.75317 78.7443 5.77171 78.2592C6.45074 78.0975 7.46928 77.6124 7.46928 77.6124C7.12976 75.6721 7.80879 73.0851 9.67611 73.0851C11.5434 73.0851 12.2225 75.6721 11.8829 77.6124C11.8829 77.6124 12.7317 77.9358 13.4108 78.0975C14.2595 78.7443 13.5805 80.3612 9.50635 80.5229Z" fill="#0075C9"/>
<path fill-rule="evenodd" clip-rule="evenodd" d="M7.97857 79.0677C6.96003 76.1572 7.80882 73.5701 9.50638 73.5701C11.0342 73.5701 12.0527 76.1572 11.0342 79.0677C11.0342 79.0677 10.5249 78.906 9.50638 78.906C8.6576 79.0677 7.97857 79.0677 7.97857 79.0677Z" fill="#FFD100"/>
<path fill-rule="evenodd" clip-rule="evenodd" d="M9.50635 80.5229C11.2039 80.5229 12.3922 80.1995 12.3922 79.7145C12.3922 79.2294 11.2039 78.906 9.50635 78.906C7.80878 78.906 6.62048 79.2294 6.62048 79.7145C6.62048 80.1995 7.97854 80.5229 9.50635 80.5229Z" fill="#F18A00"/>
<path fill-rule="evenodd" clip-rule="evenodd" d="M4.24395 73.8935H6.11127C6.45079 73.8935 6.7903 74.0552 6.7903 74.3786V75.6722C6.7903 75.9955 6.45079 76.1572 6.28103 76.1572H4.24395C3.90444 76.1572 3.73468 75.8338 3.73468 75.6722V74.3786C3.73468 74.0552 3.90444 73.8935 4.24395 73.8935Z" fill="#0075C9"/>
<path d="M4.41367 74.2169H5.94148C6.28099 74.2169 6.28099 74.3786 6.28099 74.5403V75.5104C6.28099 75.6721 6.11124 75.8338 5.94148 75.8338H4.41367C4.24391 75.8338 4.07416 75.6721 4.07416 75.5104V74.5403C4.07416 74.3786 4.24391 74.2169 4.41367 74.2169Z" fill="#2D2A26"/>
<path fill-rule="evenodd" clip-rule="evenodd" d="M6.28099 75.1871C5.60196 75.1871 5.26245 74.3786 5.26245 74.0552H5.77172C6.11124 74.0552 6.11123 74.2169 6.11123 74.3786L6.28099 75.1871Z" fill="#FFD100"/>
<path fill-rule="evenodd" clip-rule="evenodd" d="M5.0927 74.2169C5.0927 74.3786 4.75318 75.1871 4.07416 75.3487V74.702C4.07416 74.5403 4.24391 74.3786 4.41367 74.3786H5.0927V74.2169Z" fill="#FFD100"/>
<path fill-rule="evenodd" clip-rule="evenodd" d="M12.9015 73.8935H14.7688C15.1083 73.8935 15.2781 74.2169 15.2781 74.3786V75.6722C15.2781 75.9955 14.9386 76.1572 14.7688 76.1572H12.9015C12.562 76.1572 12.3922 75.8338 12.3922 75.6722V74.3786C12.3922 74.0552 12.7317 73.8935 12.9015 73.8935Z" fill="#0075C9"/>
<path d="M13.241 74.2169H14.7688C14.9386 74.2169 15.1083 74.3786 15.1083 74.5403V75.5104C15.1083 75.6721 14.9386 75.8338 14.7688 75.8338H13.241C13.0713 75.8338 12.9015 75.6721 12.9015 75.5104V74.5403C12.7317 74.3786 12.9015 74.2169 13.241 74.2169Z" fill="#2D2A26"/>
<path fill-rule="evenodd" clip-rule="evenodd" d="M15.1083 75.1871C14.4293 75.1871 14.0898 74.3786 14.0898 74.0552H14.5991C14.7688 74.0552 14.9386 74.2169 14.9386 74.3786V75.1871H15.1083Z" fill="#FFD100"/>
<path fill-rule="evenodd" clip-rule="evenodd" d="M13.7503 74.2169C13.7503 74.3786 13.4108 75.1871 12.7318 75.3487V74.702C12.7318 74.5403 12.9015 74.3786 13.0713 74.3786H13.7503V74.2169Z" fill="#FFD100"/>
<path fill-rule="evenodd" clip-rule="evenodd" d="M13.5805 67.5875C13.4107 66.9407 13.241 66.6174 13.92 66.6174H15.2781C16.1268 66.6174 15.7873 67.2641 15.6176 67.9109C15.4478 68.7193 15.4478 69.0427 15.4478 69.0427C15.4478 69.0427 13.5805 67.7492 13.5805 67.5875Z" fill="#E1251B"/>
<path fill-rule="evenodd" clip-rule="evenodd" d="M9.50637 72.4383C7.46929 72.4383 4.41367 72.6 2.7161 72.7617C1.35805 72.9234 0.169755 71.7915 1.18829 70.8214C3.22537 68.7194 8.14831 66.1323 9.50637 66.1323C11.0342 66.1323 15.9571 68.7194 17.8244 70.8214C18.843 71.7915 17.8244 72.7617 16.4664 72.7617C14.9386 72.7617 11.7132 72.4383 9.50637 72.4383Z" fill="#F18A00"/>
<path d="M10.6947 77.1274C10.6947 76.9657 10.8645 76.804 11.0342 76.804C11.204 76.804 11.3737 76.9657 11.3737 77.1274C11.3737 77.2891 11.204 77.4508 11.0342 77.4508C10.8645 77.4508 10.6947 77.2891 10.6947 77.1274Z" fill="#231F20"/>
<path fill-rule="evenodd" clip-rule="evenodd" d="M9.50639 78.906C8.65761 78.906 7.97858 79.0677 7.97858 79.0677C6.96004 76.3189 7.80883 73.7318 9.50639 73.7318C11.204 73.7318 12.0527 76.3189 11.0342 79.0677C11.0342 79.0677 10.3552 78.906 9.50639 78.906ZM11.0342 79.0677C11.883 79.2294 12.3923 79.3911 12.3923 79.7145C12.3923 80.0378 11.204 80.5229 9.50639 80.5229C7.80883 80.5229 6.79029 80.1995 6.79029 79.7145C6.79029 79.3911 7.29956 79.2294 8.14834 79.0677C8.14834 79.0677 8.99712 78.906 9.67615 78.906C10.1854 79.0677 11.0342 79.0677 11.0342 79.0677ZM11.204 79.0677C12.2225 76.1572 11.204 73.5701 9.50639 73.5701C7.80883 73.5701 6.79029 76.1572 7.80883 79.0677C6.96004 79.2294 6.45077 79.3911 6.45077 79.7145C6.45077 79.8761 6.45077 79.8762 6.62053 80.0378C5.26248 79.5528 5.09272 78.5826 5.9415 78.2592C6.62053 78.0975 7.29956 77.7741 7.29956 77.7741C6.96004 75.8338 7.46931 73.2468 9.33664 73.2468C11.204 73.2468 11.883 75.8338 11.3737 77.7741C11.3737 77.7741 12.2225 78.0975 12.7318 78.2592C13.4108 78.5826 13.4108 79.3911 12.0527 80.0378C12.2225 79.8762 12.2225 79.8761 12.2225 79.7145C12.562 79.3911 11.883 79.2294 11.204 79.0677ZM13.7503 67.5875C13.5806 67.1024 13.5806 66.7791 14.0898 66.7791H15.2781C16.1269 66.7791 15.7874 67.2641 15.6176 67.9109C15.6176 68.2343 15.6176 68.5577 15.4479 68.7194C14.9386 68.396 14.2596 67.9109 13.7503 67.5875ZM12.2225 80.1995C16.1269 80.8463 17.9942 77.7742 16.6362 75.8338C15.6176 74.5403 15.4479 73.4085 15.4479 72.7617C12.9015 72.6 11.204 72.4383 9.50639 72.4383C7.80883 72.4383 6.11126 72.6 3.56491 72.7617C3.56491 73.4085 3.2254 74.3786 2.37662 75.8338C1.01856 77.6125 3.05564 80.8463 6.79029 80.1995C5.09272 79.5528 4.92297 78.5826 5.77175 78.2592C6.45077 77.9358 7.29956 77.6125 7.29956 77.6125C6.96004 75.6721 7.63907 72.9234 9.50639 72.9234C11.3737 72.9234 12.0527 75.5105 11.7132 77.6125C11.7132 77.6125 12.562 77.9358 13.241 78.0975C14.0898 78.5826 13.9201 79.5528 12.2225 80.1995ZM9.50639 72.2766C7.29956 72.2766 5.26248 72.4383 2.88589 72.6C1.35808 72.7617 0.509293 71.7915 1.52783 70.8214C2.88589 69.3661 7.63907 66.294 9.50639 66.294C11.3737 66.294 16.1269 69.2044 17.6547 70.8214C18.6732 71.7915 17.8245 72.7617 16.2967 72.6C13.7503 72.4383 11.7132 72.2766 9.50639 72.2766ZM13.4108 67.4258V67.2641C13.241 66.9407 13.4108 66.4557 14.0898 66.4557H15.4479C16.2967 66.4557 16.1269 66.9408 15.9571 67.5875C15.7874 67.9109 15.7874 68.396 15.7874 68.8811C15.7874 68.8811 16.9757 69.6895 17.485 70.1746C19.522 71.7915 18.164 72.9234 16.2967 72.7617C16.1269 72.7617 15.9571 72.7617 15.7874 72.7617C15.7874 73.2468 15.9571 74.3786 16.8059 75.5105C19.0128 78.0975 16.1269 81.1697 11.883 80.3612C11.204 80.5229 10.1854 80.6846 9.50639 80.6846C8.82737 80.6846 7.80883 80.5229 7.1298 80.3612C2.88589 81.3314 2.32458e-05 78.0975 2.20686 75.5105C3.05564 74.3786 3.2254 73.4085 3.2254 72.7617H2.71613C0.848806 72.9234 -0.509247 71.7915 1.52783 70.1746C4.58345 67.7492 8.14834 65.9706 9.50639 65.9706C10.3552 65.9706 11.7132 66.6174 13.4108 67.4258Z" fill="#2D2A26"/>
<path d="M6.11127 76.1572H4.24395C3.90444 76.1572 3.73468 75.8338 3.73468 75.6722V74.3786C3.73468 74.0552 4.07419 73.8935 4.24395 73.8935H6.11127C6.45079 73.8935 6.7903 74.2169 6.7903 74.3786V75.6722C6.7903 75.9955 6.45079 76.1572 6.11127 76.1572ZM4.24395 73.8935C3.90444 73.8935 3.73468 74.0552 3.73468 74.3786V75.6722C3.73468 75.9955 4.07419 76.1572 4.24395 76.1572H6.11127C6.45079 76.1572 6.62054 75.8338 6.62054 75.6722V74.3786C6.62054 74.0552 6.28103 73.8935 6.11127 73.8935H4.24395Z" fill="#2D2A26"/>
<path d="M14.9386 76.1572H13.0712C12.7317 76.1572 12.562 75.8338 12.562 75.6722V74.3786C12.562 74.0552 12.9015 73.8935 13.0712 73.8935H14.9386C15.2781 73.8935 15.4478 74.2169 15.4478 74.3786V75.6722C15.4478 75.9955 15.2781 76.1572 14.9386 76.1572ZM12.9015 73.8935C12.562 73.8935 12.3922 74.0552 12.3922 74.3786V75.6722C12.3922 75.9955 12.562 76.1572 12.9015 76.1572H14.7688C15.1083 76.1572 15.2781 75.8338 15.2781 75.6722V74.3786C15.2781 74.0552 14.9386 73.8935 14.7688 73.8935H12.9015Z" fill="#2D2A26"/>
</svg>
